<?xml version="1.0" encoding="UTF-8"?>
<svg version="1.1" xmlns="http://www.w3.org/2000/svg" width="566" height="402">
<path d="M0 0 C0.82290527 0.00202423 1.64581055 0.00404846 2.49365234 0.00613403 C3.33331543 0.00517731 4.17297852 0.00422058 5.03808594 0.00323486 C6.81689529 0.00255306 8.59570712 0.00440737 10.37451172 0.00857544 C13.10699011 0.01392371 15.83930411 0.00863048 18.57177734 0.00222778 C20.29573604 0.00288856 22.01969464 0.00416973 23.74365234 0.00613403 C24.56655762 0.0041098 25.38946289 0.00208557 26.23730469 0 C32.0037018 0.02399599 32.0037018 0.02399599 33.11865234 1.13894653 C33.20497109 2.48162066 33.22571708 3.82868975 33.21630859 5.17410278 C33.21147461 6.38743286 33.21147461 6.38743286 33.20654297 7.62527466 C33.19397461 8.90047974 33.19397461 8.90047974 33.18115234 10.20144653 C33.17664063 11.05545044 33.17212891 11.90945435 33.16748047 12.78933716 C33.15565608 14.90590317 33.13772003 17.02243338 33.11865234 19.13894653 C29.74819979 20.09460735 26.736113 20.16864005 23.23022461 20.07302856 C9.31351496 19.70540017 0.29807645 23.3652354 -11.06884766 31.38894653 C-21.63908004 41.72428487 -26.88592868 55.5362686 -27.08447266 70.23660278 C-27.10563797 72.55817347 -27.12109191 74.87980202 -27.13134766 77.20144653 C-27.15197266 78.37255981 -27.17259766 79.5436731 -27.19384766 80.75027466 C-27.19900391 81.88013794 -27.20416016 83.01000122 -27.20947266 84.17410278 C-27.21881836 85.19898804 -27.22816406 86.22387329 -27.23779297 87.27981567 C-26.82570042 90.58530594 -25.73593094 92.40495991 -23.88134766 95.13894653 C-22.99820972 97.03100267 -22.12362141 98.9270663 -21.25634766 100.82644653 C-15.06976373 113.24544093 -5.33551575 121.56379263 7.60302734 126.32644653 C21.69159498 130.87679136 36.95116646 130.78291932 50.50537109 124.59207153 C59.2112118 120.10513881 66.07545829 115.61151254 71.11865234 107.13894653 C70.63396484 107.65843872 70.14927734 108.17793091 69.64990234 108.71316528 C62.27816611 116.38260625 53.76194989 122.92018496 42.75146484 123.57254028 C41.24904443 123.59607475 39.74611804 123.59688715 38.24365234 123.57644653 C37.4535376 123.56814819 36.66342285 123.55984985 35.84936523 123.55130005 C25.34014992 123.24776531 17.7350692 119.32840331 10.11865234 112.13894653 C4.46048291 106.05511665 -3.88134766 96.82684964 -3.88134766 88.13894653 C-3.06158447 87.88314819 -2.24182129 87.62734985 -1.3972168 87.36380005 C32.927128 77.32084927 32.927128 77.32084927 58.06005859 53.18972778 C60.7209077 48.03494631 60.22346543 43.75086045 58.83740234 38.30691528 C56.24598358 30.4904076 49.80982773 25.34720991 42.68115234 21.76394653 C40.91771484 20.95957153 40.91771484 20.95957153 39.11865234 20.13894653 C39.44865234 19.47894653 39.77865234 18.81894653 40.11865234 18.13894653 C44.63936255 18.05143154 49.15985304 17.99838044 53.68115234 17.95144653 C54.95796875 17.92630981 56.23478516 17.9011731 57.55029297 17.87527466 C69.51320524 17.78205716 69.51320524 17.78205716 75.11865234 21.13894653 C80.10398615 26.38666633 80.2622596 30.79005474 80.23217773 37.74124146 C80.23232376 38.61950089 80.23246979 39.49776031 80.23262024 40.40263367 C80.23192306 43.30825258 80.22413973 46.21380755 80.21630859 49.11941528 C80.21444372 51.13294947 80.21302015 53.14648412 80.21202087 55.16001892 C80.20820114 60.46186575 80.19837546 65.76368523 80.18731689 71.06552124 C80.17709111 76.4747582 80.17252075 81.88399957 80.16748047 87.29324341 C80.15675273 97.90848981 80.1396828 108.5237159 80.11865234 119.13894653 C73.75232857 122.44135719 67.36979826 125.359218 60.65771484 127.88113403 C59.7870639 128.2125943 58.91641296 128.54405457 58.01937866 128.88555908 C56.18671046 129.58203726 54.35308813 130.27600963 52.51855469 130.96755981 C49.78270074 131.99922179 47.05007458 133.03906707 44.31787109 134.08035278 C38.92858506 136.12841028 33.52649688 138.14047492 28.11865234 140.13894653 C27.20831238 140.47757721 26.29797241 140.81620789 25.36004639 141.1651001 C22.67979407 142.15717865 19.99414243 143.13289886 17.30615234 144.10379028 C16.50811188 144.40054657 15.71007141 144.69730286 14.8878479 145.00305176 C5.61387746 148.30466602 -3.97349521 148.87389384 -13.38134766 145.51394653 C-24.092555 140.38261437 -32.46358269 132.24276787 -36.76806641 121.09597778 C-39.01079153 113.87027613 -39.76167692 106.21044821 -40.85791016 98.74832153 C-41.76697056 92.65602198 -42.95058476 86.65707865 -44.25634766 80.63894653 C-46.22773009 71.43708479 -48.06587899 62.21613038 -49.78375244 52.96389771 C-50.05356179 51.51650849 -50.32654663 50.06970701 -50.60296631 48.62356567 C-54.2426221 29.53945343 -54.2426221 29.53945343 -52.23803711 23.05935669 C-50.18821568 20.15780992 -48.20386185 19.36709946 -44.88134766 18.13894653 C-41.90486213 17.76379167 -38.97899166 17.78800626 -35.98291016 17.84597778 C-35.14795013 17.85022263 -34.31299011 17.85446747 -33.45272827 17.85884094 C-30.80359731 17.87554321 -28.15524606 17.91317878 -25.50634766 17.95144653 C-23.70297328 17.96650434 -21.8995869 17.98019082 -20.09619141 17.99246216 C-15.69094615 18.02541891 -11.2862788 18.07714184 -6.88134766 18.13894653 C-6.89294922 16.9233606 -6.90455078 15.70777466 -6.91650391 14.45535278 C-6.92588044 12.87071889 -6.93498078 11.28608336 -6.94384766 9.70144653 C-6.95222656 8.89900513 -6.96060547 8.09656372 -6.96923828 7.26980591 C-6.97786196 5.22599432 -6.93362916 3.18210752 -6.88134766 1.13894653 C-5.03858257 -0.70381855 -2.45171007 0.01020242 0 0 Z M11.11865234 9.13894653 C11.44865234 9.79894653 11.77865234 10.45894653 12.11865234 11.13894653 C12.77865234 11.13894653 13.43865234 11.13894653 14.11865234 11.13894653 C14.11865234 10.47894653 14.11865234 9.81894653 14.11865234 9.13894653 C13.12865234 9.13894653 12.13865234 9.13894653 11.11865234 9.13894653 Z M74.11865234 101.13894653 C75.11865234 103.13894653 75.11865234 103.13894653 75.11865234 103.13894653 Z M73.11865234 103.13894653 C74.11865234 105.13894653 74.11865234 105.13894653 74.11865234 105.13894653 Z " fill="#BF9E5F" transform="translate(269.88134765625,43.861053466796875)"/>
<path d="M0 0 C4.52071021 -0.08751499 9.0412007 -0.1405661 13.5625 -0.1875 C15.47772461 -0.22520508 15.47772461 -0.22520508 17.43164062 -0.26367188 C29.3945529 -0.35688937 29.3945529 -0.35688937 35 3 C39.98533381 8.2477198 40.14360726 12.65110821 40.11352539 19.60229492 C40.11367142 20.48055435 40.11381744 21.35881378 40.1139679 22.26368713 C40.11327072 25.16930605 40.10548739 28.07486102 40.09765625 30.98046875 C40.09579138 32.99400294 40.0943678 35.00753758 40.09336853 37.02107239 C40.08954879 42.32291922 40.07972312 47.62473869 40.06866455 52.92657471 C40.05843877 58.33581167 40.0538684 63.74505304 40.04882812 69.15429688 C40.03810039 79.76954327 40.02103046 90.38476936 40 101 C39.67 101 39.34 101 39 101 C38.505 92.09 38.505 92.09 38 83 C36.68 84.32 35.36 85.64 34 87 C32.30661425 88.5078633 30.5789523 89.96629965 28.84375 91.42578125 C27.65561573 92.4402264 26.48685883 93.47804425 25.34375 94.54296875 C15.19711193 103.85203056 4.48016635 105.72739503 -8.84765625 105.17480469 C-18.23744554 104.41220383 -25.90942179 98.39830978 -32.12890625 91.7109375 C-44 77.51968691 -44 77.51968691 -44 70 C-43.18023682 69.74420166 -42.36047363 69.48840332 -41.51586914 69.22485352 C-7.19152435 59.18190273 -7.19152435 59.18190273 17.94140625 35.05078125 C20.60225535 29.89599978 20.10481309 25.61191391 18.71875 20.16796875 C16.12733124 12.35146106 9.69117538 7.20826338 2.5625 3.625 C1.386875 3.08875 0.21125 2.5525 -1 2 C-0.67 1.34 -0.34 0.68 0 0 Z M34 83 C35 85 35 85 35 85 Z " fill="#D7AF68" transform="translate(310,62)"/>
<path d="M0 0 C3.2031741 3.28530677 3.77108137 6.26512753 3.71875 10.765625 C3.71230469 11.7453125 3.70585937 12.725 3.69921875 13.734375 C3.67408203 15.25804687 3.67408203 15.25804687 3.6484375 16.8125 C3.63941406 17.84375 3.63039063 18.875 3.62109375 19.9375 C3.59755761 22.47940287 3.56467773 25.0208328 3.5234375 27.5625 C2.2034375 27.5625 0.8834375 27.5625 -0.4765625 27.5625 C-1.05664062 25.93441406 -1.05664062 25.93441406 -1.6484375 24.2734375 C-2.174061 22.82797287 -2.70012622 21.38266882 -3.2265625 19.9375 C-3.47921875 19.22464844 -3.731875 18.51179688 -3.9921875 17.77734375 C-6.62828056 10.59399016 -9.61166957 5.40684004 -16.4765625 1.5625 C-23.34233435 -1.10326058 -30.8406787 -1.76923681 -37.9921875 0.28515625 C-41.11426561 1.7132179 -43.15615668 3.21205614 -45.4765625 5.75 C-47.3448715 11.00461905 -47.37883083 15.60104712 -45.0390625 20.6875 C-38.25948081 28.29385995 -29.56154443 32.96280911 -20.84765625 38.01171875 C3.78958574 52.32054234 3.78958574 52.32054234 7.08984375 61.421875 C9.00587342 70.88119264 7.78599232 79.9509057 2.9609375 88.25 C-6.69891091 97.41447157 -18.42201 99.93913904 -31.34765625 99.77734375 C-42.81576546 98.98989555 -52.7552785 96.5686235 -61.4765625 88.9375 C-64.34511273 85.5310966 -64.6002857 82.97682779 -64.57421875 78.67578125 C-64.57099609 77.73798828 -64.56777344 76.80019531 -64.56445312 75.83398438 C-64.55188477 74.36928711 -64.55188477 74.36928711 -64.5390625 72.875 C-64.53455078 71.88693359 -64.53003906 70.89886719 -64.52539062 69.88085938 C-64.51360553 67.44134526 -64.49715261 65.00195311 -64.4765625 62.5625 C-62.8265625 62.8925 -61.1765625 63.2225 -59.4765625 63.5625 C-59.19683594 64.5525 -58.91710937 65.5425 -58.62890625 66.5625 C-56.01629721 75.35168178 -53.49535827 82.75171683 -45.37890625 87.890625 C-37.7171159 91.7282766 -29.696777 92.41909593 -21.44921875 90.22265625 C-17.54142707 88.91490022 -15.1791353 87.51599165 -12.7265625 84.1875 C-10.63974794 79.80518943 -10.15279878 76.97215708 -11.3515625 72.25 C-15.5395387 61.31901424 -28.05028769 56.01815208 -37.6809082 50.63793945 C-48.96179165 44.30291605 -60.26161162 37.66276959 -64.0546875 24.56640625 C-65.60859626 17.18533965 -64.31338634 9.90814342 -60.7265625 3.375 C-54.67604221 -4.18815037 -47.56662493 -7.31415902 -38.109375 -9.05859375 C-24.60022223 -10.46761291 -10.91515 -8.47420928 0 0 Z " fill="#393536" transform="translate(195.4765625,250.4375)"/>
<path d="M0 0 C3.53042896 3.69463496 3.81238552 5.08333575 3.78515625 10.0390625 C3.78032227 11.5859375 3.78032227 11.5859375 3.77539062 13.1640625 C3.76282227 14.78441406 3.76282227 14.78441406 3.75 16.4375 C3.74548828 17.52546875 3.74097656 18.6134375 3.73632812 19.734375 C3.72451776 22.42713789 3.70804778 25.11979188 3.6875 27.8125 C2.3675 27.8125 1.0475 27.8125 -0.3125 27.8125 C-0.60382813 26.8225 -0.89515625 25.8325 -1.1953125 24.8125 C-4.76274048 12.52339084 -4.76274048 12.52339084 -13.3671875 3.484375 C-21.66172466 -0.82999964 -30.3851954 -1.60106804 -39.4375 1 C-42.47620534 2.15185582 -43.11652048 2.47770165 -44.8125 5.375 C-44.9775 6.179375 -45.1425 6.98375 -45.3125 7.8125 C-45.6425 8.4725 -45.9725 9.1325 -46.3125 9.8125 C-46.72176361 15.13292691 -46.01624359 18.23920943 -43.3125 22.8125 C-35.91665993 30.04668236 -26.14529782 35.02089351 -17.23120117 40.11938477 C-12.22875012 42.99653887 -7.50750954 45.98967547 -2.953125 49.53881836 C-1.53052573 50.64323806 -0.05051951 51.67294124 1.4375 52.6875 C6.23398235 57.21751111 8.27855445 62.95015864 8.71484375 69.4609375 C8.61732476 77.84757037 6.29041138 84.50922469 0.6875 90.8125 C-7.94163619 98.78053302 -19.60654825 100.41370699 -30.984375 100.09765625 C-41.96066591 99.1571994 -52.6507013 96.79263739 -61.0703125 89.38671875 C-64.66281965 84.87056294 -63.84439329 79.41895698 -63.625 73.9375 C-63.60244141 72.86757813 -63.57988281 71.79765625 -63.55664062 70.6953125 C-63.49795633 68.06625593 -63.4159118 65.44011418 -63.3125 62.8125 C-61.9925 62.8125 -60.6725 62.8125 -59.3125 62.8125 C-58.99796875 63.82570313 -58.6834375 64.83890625 -58.359375 65.8828125 C-57.9275756 67.23453235 -57.49525612 68.58608614 -57.0625 69.9375 C-56.85753906 70.60265625 -56.65257812 71.2678125 -56.44140625 71.953125 C-54.29656827 78.58262421 -51.24863936 83.90004451 -45.3125 87.8125 C-37.61396178 91.59423807 -29.71450828 92.72973953 -21.38671875 90.53515625 C-16.92823421 88.9818236 -14.12381309 86.93786977 -11.375 83.125 C-9.93788753 78.64459054 -9.86404774 75.3034684 -11.3125 70.8125 C-16.55902581 61.4654472 -27.9990764 56.37930595 -36.90625 51.078125 C-59.28890951 37.70874131 -59.28890951 37.70874131 -62.71875 28.5625 C-64.37504546 20.8912368 -64.89663458 11.85576917 -61.3125 4.6875 C-55.55162501 -3.79199015 -47.36046405 -6.93619709 -37.6875 -8.9375 C-24.85658644 -10.10857544 -10.22643215 -8.49772773 0 0 Z " fill="#383435" transform="translate(280.3125,250.1875)"/>
<path d="M0 0 C9.2667011 -0.06963883 18.53331154 -0.12288156 27.80021763 -0.15543652 C32.10364109 -0.17106457 36.40688496 -0.19225028 40.71020508 -0.22631836 C44.86640618 -0.25901427 49.02243498 -0.27687452 53.17875481 -0.28463173 C54.76112516 -0.29015693 56.34348653 -0.30094627 57.92578316 -0.31719017 C60.14937536 -0.33910112 62.37226376 -0.34196133 64.59594727 -0.34057617 C65.85947525 -0.34723801 67.12300323 -0.35389984 68.42481995 -0.36076355 C72.62500785 0.06306817 75.25547372 1.0853821 79 3 C81.02592931 5.72483674 81.24305112 7.98642147 81.1953125 11.328125 C81.18886719 12.12734375 81.18242187 12.9265625 81.17578125 13.75 C81.15064453 14.9875 81.15064453 14.9875 81.125 16.25 C81.11597656 17.09046875 81.10695313 17.9309375 81.09765625 18.796875 C81.07415817 20.86470604 81.03828908 22.93238995 81 25 C79.68 25.33 78.36 25.66 77 26 C76.82984375 25.33613281 76.6596875 24.67226563 76.484375 23.98828125 C74.519391 16.80959217 74.519391 16.80959217 70 11 C65.80832405 8.83161287 61.91219037 8.7358854 57.29296875 8.8046875 C56.64928345 8.80670166 56.00559814 8.80871582 55.34240723 8.81079102 C52.95736478 8.82118826 50.57242459 8.84911053 48.1875 8.875 C40.1746875 8.936875 40.1746875 8.936875 32 9 C32 20.88 32 32.76 32 45 C51.8 45.495 51.8 45.495 72 46 C72 48.31 72 50.62 72 53 C67.90327355 54.14402776 63.95962841 54.12621742 59.734375 54.09765625 C59.03070801 54.09664917 58.32704102 54.09564209 57.60205078 54.09460449 C54.98468384 54.08939005 52.36734021 54.07542881 49.75 54.0625 C43.8925 54.041875 38.035 54.02125 32 54 C32 67.86 32 81.72 32 96 C36.929375 95.896875 41.85875 95.79375 46.9375 95.6875 C49.2422229 95.65015747 49.2422229 95.65015747 51.59350586 95.61206055 C61.84701398 95.33743091 70.48474145 94.68605988 78 87 C79.33762566 84.89578185 80.57402816 82.7852864 81.7265625 80.57421875 C82.14679688 80.05472656 82.56703125 79.53523438 83 79 C84.32 79 85.64 79 87 79 C86.46717862 86.81471364 83.84002003 94.63005827 78.76782227 100.64868164 C73.75361835 104.66319739 67.15191062 103.60869893 61.0703125 103.48828125 C59.71126613 103.47894512 58.35220282 103.47183278 56.99313354 103.46684265 C53.43185214 103.44783493 49.87160521 103.39879121 46.31072998 103.34332275 C42.67083731 103.29199367 39.03077598 103.26929971 35.390625 103.24414062 C28.25999581 103.19066391 21.13006577 103.10542908 14 103 C12.39787566 99.79575132 12.84683614 96.31026068 12.84228516 92.79003906 C12.83720444 91.94107056 12.83212372 91.09210205 12.82688904 90.21740723 C12.81617307 88.36984546 12.80755772 86.52227062 12.80076981 84.67469025 C12.78899633 81.74918301 12.76954648 78.82382443 12.74765015 75.89837646 C12.68598902 67.5791113 12.63201762 59.2598601 12.59863281 50.94042969 C12.57767267 45.85461328 12.54235525 40.7690657 12.49787521 35.68340302 C12.48372211 33.74579791 12.47499433 31.80814522 12.47182083 29.87049103 C12.46690526 27.15588831 12.4437296 24.44199694 12.41650391 21.72753906 C12.41951004 20.92938782 12.42251617 20.13123657 12.4256134 19.30889893 C12.35412458 14.50256522 11.66797385 11.15970244 9 7 C6.77556375 5.86748899 6.77556375 5.86748899 4.3125 5.625 C3.50425781 5.49351562 2.69601562 5.36203125 1.86328125 5.2265625 C1.24839844 5.15179688 0.63351562 5.07703125 0 5 C0 3.35 0 1.7 0 0 Z " fill="#3B3738" transform="translate(427,244)"/>
<path d="M0 0 C9.13631675 -0.06964322 18.2725415 -0.12288376 27.4090662 -0.15543652 C31.65195687 -0.17106363 35.89466534 -0.19224757 40.13745117 -0.22631836 C44.23529783 -0.2590177 48.33296971 -0.27687523 52.43093681 -0.28463173 C53.99097887 -0.29015632 55.55101183 -0.30094447 57.11097908 -0.31719017 C59.3034411 -0.33910575 61.49518945 -0.34196114 63.68774414 -0.34057617 C64.93350723 -0.34723801 66.17927032 -0.35389984 67.46278381 -0.36076355 C71.67415384 0.0687575 74.26044799 1.03316751 78 3 C81.73082988 8.59624482 81.68134211 16.39444602 81 23 C80.01 24.485 80.01 24.485 79 26 C78.01 26 77.02 26 76 26 C75.85304688 25.26394531 75.70609375 24.52789062 75.5546875 23.76953125 C74.13660235 17.07772722 74.13660235 17.07772722 70 11.875 C65.45528614 9.03455384 61.6974398 8.80669688 56.48828125 8.68359375 C55.84258179 8.66494263 55.19688232 8.6462915 54.53161621 8.6270752 C52.12537999 8.55890627 49.71892417 8.49867543 47.3125 8.4375 C39.2378125 8.2209375 39.2378125 8.2209375 31 8 C31 20.54 31 33.08 31 46 C33.87589844 45.98839844 36.75179687 45.97679687 39.71484375 45.96484375 C42.48819875 45.95705375 45.26155254 45.95097667 48.03491211 45.94506836 C49.96818585 45.94002744 51.90145576 45.93319481 53.8347168 45.92456055 C56.60726872 45.91248435 59.37977041 45.90676943 62.15234375 45.90234375 C63.45702858 45.89460182 63.45702858 45.89460182 64.78807068 45.88670349 C66.85905814 45.88650815 68.92994324 45.93791832 71 46 C72 47 72 47 72.0625 50.0625 C72.041875 51.031875 72.02125 52.00125 72 53 C67.83603046 54.16659764 63.81034936 54.12588177 59.515625 54.09765625 C58.43063721 54.09614563 58.43063721 54.09614563 57.32373047 54.09460449 C54.63247076 54.08938887 51.94123372 54.07542762 49.25 54.0625 C40.21625 54.0315625 40.21625 54.0315625 31 54 C31 67.86 31 81.72 31 96 C35.929375 95.896875 40.85875 95.79375 45.9375 95.6875 C48.2422229 95.65015747 48.2422229 95.65015747 50.59350586 95.61206055 C59.87264466 95.36352838 69.10975103 95.07647192 76 88 C78.11840335 85.07072455 80.09141875 82.06947088 82 79 C83.65 79.33 85.3 79.66 87 80 C86.06867993 82.56489767 85.13021493 85.12679206 84.1875 87.6875 C83.92646484 88.40873047 83.66542969 89.12996094 83.39648438 89.87304688 C79.68664454 99.90335459 79.68664454 99.90335459 76.28143311 102.11740112 C73.3850595 103.23789687 71.0521232 103.23988481 67.94628906 103.22705078 C66.72532532 103.22689972 65.50436157 103.22674866 64.24639893 103.22659302 C62.93274353 103.21627045 61.61908813 103.20594788 60.265625 103.1953125 C58.90370898 103.19158042 57.54179027 103.18873437 56.17987061 103.18673706 C52.60252414 103.17911594 49.02534115 103.15948069 45.44805908 103.1373291 C41.7948223 103.11683778 38.14155899 103.10772833 34.48828125 103.09765625 C27.32544647 103.07623322 20.16274617 103.04211582 13 103 C12.98786972 101.47689461 12.98786972 101.47689461 12.97549438 99.92301941 C12.89774282 90.31669614 12.80993225 80.71050946 12.71247292 71.10436535 C12.66269554 66.16669162 12.61636499 61.22903739 12.578125 56.29125977 C12.54103635 51.5189858 12.49461492 46.74688268 12.44193649 41.97475624 C12.42351703 40.16129897 12.40836404 38.34780524 12.39665604 36.53429222 C12.82783205 22.5079554 12.82783205 22.5079554 10 9 C6.8509982 6.07960566 4.23825793 5.48162022 0 5 C0 3.35 0 1.7 0 0 Z " fill="#393637" transform="translate(34,244)"/>
<path d="M0 0 C5.59504652 4.38756853 9.37384311 10.74936329 10.2890625 17.875 C10.64735303 26.46019225 7.56432888 32.75034777 2.328125 39.43359375 C-7.9750577 50.51339826 -24.34597367 57.71091766 -38.984375 60.74609375 C-43.77779119 44.62683839 -47.31419351 26.53250081 -39.23828125 10.73828125 C-34.62579155 3.41002659 -29.36712102 -1.40365497 -20.9765625 -3.8359375 C-13.56691292 -5.39051104 -6.37734867 -4.02978135 0 0 Z " fill="#C7A25F" transform="translate(302.984375,69.25390625)"/>
<path d="M0 0 C9.45517678 5.91661968 14.30446781 16.28387377 17.24609375 26.671875 C17.99759216 29.98937057 18.46313195 33.25008119 18.875 36.625 C20.47519217 47.78600424 25.56863698 54.38562817 34.4140625 61.125 C36.04386897 62.30673279 37.68333452 63.47536315 39.3359375 64.625 C39.88507813 65.07875 40.43421875 65.5325 41 66 C41 66.66 41 67.32 41 68 C19.7720003 68.93806218 2.12302197 61.42358146 -14 48 C-14.71285156 47.44957031 -15.42570312 46.89914063 -16.16015625 46.33203125 C-26.03608906 38.38023644 -34.29735046 27.43325678 -36.3671875 14.75 C-36.69197313 9.70627023 -35.18578076 6.78849604 -32 3 C-22.68802272 -6.05331124 -10.97376324 -5.82467633 0 0 Z M-9.75 27 C-12.21434962 28.86316295 -12.21434962 28.86316295 -13 31.875 C-13 37.43930602 -9.42125614 40.90956511 -5.6875 44.75 C3.07123857 53.30475048 14.16938873 60.54609671 26 64 C26.66 63.67 27.32 63.34 28 63 C27.45472656 62.59910156 26.90945312 62.19820312 26.34765625 61.78515625 C15.36773652 53.50798599 6.70674005 44.27020432 0.375 32 C-1.13151315 29.22328948 -1.8589692 28.09872156 -4.5 26.25 C-7.09174186 25.80836931 -7.09174186 25.80836931 -9.75 27 Z " fill="#C2A061" transform="translate(184,66)"/>
<path d="M0 0 C3.5624308 -0.05827558 7.12473819 -0.09368885 10.6875 -0.125 C12.19860352 -0.15013672 12.19860352 -0.15013672 13.74023438 -0.17578125 C14.71669922 -0.18222656 15.69316406 -0.18867188 16.69921875 -0.1953125 C17.59471436 -0.20578613 18.49020996 -0.21625977 19.4128418 -0.22705078 C22.99185359 0.08704575 25.75218596 1.00192782 28.57380676 3.25881958 C34.59606489 10.6111458 32.25282693 26.35671384 32.1953125 35.453125 C32.19157407 37.20717201 32.18873103 38.96122113 32.18673706 40.715271 C32.17916592 45.29203234 32.15957484 49.86866314 32.1373291 54.44537354 C32.11309551 59.95803633 32.1040586 65.4707432 32.09242249 70.98344421 C32.07314554 79.32238644 32.03477785 87.66104323 32 96 C49.49 96 66.98 96 85 96 C85 98.31 85 100.62 85 103 C61.57 103 38.14 103 14 103 C13.95101563 97.05226563 13.90203125 91.10453125 13.8515625 84.9765625 C13.81615005 81.19399407 13.78017512 77.41144756 13.7421875 73.62890625 C13.68203108 67.6336593 13.62388468 61.63844278 13.578125 55.64306641 C13.54107496 50.80595921 13.49466308 45.96902182 13.44193649 41.132061 C13.4234968 39.2926572 13.40835098 37.45321714 13.39665604 35.61375809 C13.92060159 22.01153181 13.92060159 22.01153181 11 9 C7.57538651 5.82909941 4.59900222 5.44221175 0 5 C0 3.35 0 1.7 0 0 Z " fill="#353233" transform="translate(342,244)"/>
<path d="M0 0 C5.94 0 11.88 0 18 0 C18.01458252 2.58835693 18.02916504 5.17671387 18.04418945 7.84350586 C18.09463623 16.4170776 18.16124904 24.99046964 18.23571491 33.56386471 C18.28034957 38.7594388 18.31962088 43.95493572 18.34643555 49.15063477 C18.37253742 54.16934101 18.41298841 59.18774919 18.46318626 64.20627022 C18.4798085 66.11627036 18.49135158 68.026322 18.49761391 69.9363842 C18.5073057 72.6218848 18.53542484 75.3066308 18.56762695 77.99194336 C18.56547432 79.16367851 18.56547432 79.16367851 18.5632782 80.35908508 C18.65625305 85.879103 19.60023788 90.9829253 22 96 C24.1588622 97.67073542 24.1588622 97.67073542 26.6875 98.0625 C27.49574219 98.25972656 28.30398438 98.45695312 29.13671875 98.66015625 C29.75160156 98.77230469 30.36648438 98.88445312 31 99 C31 100.32 31 101.64 31 103 C27.27098186 103.08736736 23.54222835 103.14051482 19.8125 103.1875 C18.22985352 103.22520508 18.22985352 103.22520508 16.61523438 103.26367188 C15.59365234 103.27333984 14.57207031 103.28300781 13.51953125 103.29296875 C12.11344604 103.31653442 12.11344604 103.31653442 10.67895508 103.34057617 C7.44212712 102.92907749 5.6203905 101.9183649 3 100 C-0.56417982 94.65373026 -0.14006168 89.20391179 -0.11352539 82.98706055 C-0.11367142 82.08900192 -0.11381744 81.1909433 -0.1139679 80.26567078 C-0.11327287 77.30599528 -0.10549965 74.34638321 -0.09765625 71.38671875 C-0.09579061 69.33120254 -0.0943674 67.27568588 -0.09336853 65.22016907 C-0.08955482 59.81642423 -0.0797343 54.41270637 -0.06866455 49.00897217 C-0.0584258 43.49231328 -0.05386563 37.97565003 -0.04882812 32.45898438 C-0.03811101 21.63930917 -0.02052348 10.81966105 0 0 Z " fill="#322F30" transform="translate(307,244)"/>
<path d="M0 0 C-3.21497364 3.31239709 -6.49080389 6.27243222 -10.15625 9.08203125 C-16.04674394 15.20964253 -17.92777019 21.68042477 -19.4375 29.875 C-21.94918738 41.98003489 -25.59180031 50.69600022 -36 58 C-41.41209344 61.31594346 -46.99995209 61.955567 -53.109375 60.49609375 C-57.81067199 58.94961448 -60.75368219 56.83655741 -64 53 C-66.19492212 48.61015576 -65.69068306 42.52939337 -64.421875 37.8828125 C-56.17293354 19.81013167 -38.83354111 9.25484603 -21.33203125 1.875 C-14.68269156 -0.57289851 -6.91619949 -2.07485985 0 0 Z M-15 4 C-26.92562983 8.61086404 -39.05205384 15.89258105 -46 27 C-46.00674926 30.12680099 -46.00674926 30.12680099 -45 33 C-42.26073679 35.22774866 -42.26073679 35.22774866 -39.546875 34.99609375 C-35.89194456 33.56663476 -35.11080081 31.46999208 -33.25 28.0625 C-27.99396529 18.89129445 -21.20972062 11.63764646 -13 5 C-13.66 4.67 -14.32 4.34 -15 4 Z " fill="#C2A162" transform="translate(226,138)"/>
<path d="M0 0 C4.03764596 1.34588199 5.09774999 3.96360643 7.1875 7.4375 C14.66975029 19.4542625 23.86436889 30.12425686 34 40 C34.51175781 40.556875 35.02351563 41.11375 35.55078125 41.6875 C47.60270113 54.48782604 63.18410521 63.61599717 79.36328125 70.2109375 C81 71 81 71 83 73 C76.84302489 73.24299224 71.66726896 72.43219951 65.734375 70.83984375 C64.86089417 70.61228897 63.98741333 70.38473419 63.08746338 70.15028381 C61.24064795 69.66655933 59.39509909 69.17797601 57.55078125 68.68481445 C54.80280345 67.9515892 52.05044381 67.23729011 49.296875 66.52539062 C33.15762443 62.29788991 17.20304168 57.32836295 2.0625 50.25 C1.24072266 49.87746094 0.41894531 49.50492188 -0.42773438 49.12109375 C-8.65947479 45.34849045 -8.65947479 45.34849045 -12 43 C-12 42.34 -12 41.68 -12 41 C-0.615 40.01 -0.615 40.01 11 39 C9.75845508 33.41304786 8.54198437 28.21785642 6.8359375 22.8125 C6.63900299 22.1839209 6.44206848 21.5553418 6.23916626 20.90771484 C5.62127948 18.93735449 4.99844862 16.96860679 4.375 15 C3.74524738 13.00257853 3.11656452 11.00483069 2.4894104 9.0065918 C1.92659401 7.21464718 1.36059719 5.42370239 0.79443359 3.6328125 C0 1 0 1 0 0 Z " fill="#C4A366" transform="translate(107,58)"/>
<path d="M0 0 C2 1.625 2 1.625 3 4 C3 7.5625 3 7.5625 2 11 C-0.80885066 13.56809203 -2.32615149 14 -6.125 14 C-9 13 -9 13 -10.9375 10.8125 C-12.25534582 7.32408458 -12.15210349 5.53311738 -11 2 C-7.74677693 -1.87884289 -4.6246188 -1.26125967 0 0 Z " fill="#D6B57A" transform="translate(295,24)"/>
<path d="M0 0 C0.33 0 0.66 0 1 0 C1 29.7 1 59.4 1 90 C0.67 90 0.34 90 0 90 C-0.33 84.06 -0.66 78.12 -1 72 C-2.32 73.32 -3.64 74.64 -5 76 C-5.40145684 71.9854316 -5.12025982 70.20203651 -3.02246094 66.67773438 C0.08163308 60.65957183 -0.39681799 54.28396996 -0.390625 47.65625 C-0.37562137 46.27760904 -0.35888968 44.8989859 -0.34051514 43.52038574 C-0.29707314 39.91686109 -0.27689463 36.31357879 -0.26177979 32.70983887 C-0.24212435 29.02256068 -0.2001643 25.33554107 -0.16015625 21.6484375 C-0.08510561 14.43236158 -0.0346629 7.21639505 0 0 Z " fill="#FDE7C1" transform="translate(349,73)"/>
<path d="M0 0 C3 1 3 1 5 4 C5.66 2.68 6.32 1.36 7 0 C7.66 0 8.32 0 9 0 C10.625 2 10.625 2 12 4 C12.66 2.68 13.32 1.36 14 0 C14.66 0 15.32 0 16 0 C15.68991116 1.60463449 15.37683713 3.20869231 15.0625 4.8125 C14.88847656 5.70582031 14.71445313 6.59914063 14.53515625 7.51953125 C14 10 14 10 13 13 C12.34 13 11.68 13 11 13 C9.5393715 10.35261084 9 9.10551666 9 6 C8.34 6 7.68 6 7 6 C6.855625 6.78375 6.71125 7.5675 6.5625 8.375 C6 11 6 11 5 13 C4.34 13 3.68 13 3 13 C2.49487756 11.39743892 1.99608373 9.79288208 1.5 8.1875 C1.2215625 7.29417969 0.943125 6.40085937 0.65625 5.48046875 C0 3 0 3 0 0 Z " fill="#7C7A7B" transform="translate(73,366)"/>
<path d="M0 0 C0.66 0.99 1.32 1.98 2 3 C-1.06890187 4.53445094 -3.70094266 3.54984289 -7 3 C-7.66 4.32 -8.32 5.64 -9 7 C-8.01 8.485 -8.01 8.485 -7 10 C-4.45792029 10.33343551 -4.45792029 10.33343551 -2 10 C-1.67 9.67 -1.34 9.34 -1 9 C-1.99 8.67 -2.98 8.34 -4 8 C-4 7.34 -4 6.68 -4 6 C-1.69 6 0.62 6 3 6 C1.375 11.75 1.375 11.75 -2 14 C-5.68256285 13.8684799 -8.09748237 13.73329557 -11 11.375 C-12.48410166 7.85025855 -12.05654989 5.63189024 -11 2 C-7.36374171 -1.32457901 -4.62694146 -1.4394929 0 0 Z " fill="#929090" transform="translate(414,366)"/>
<path d="M0 0 C2.4970475 2.81924718 3 4.35724432 3 8.125 C2 11 2 11 -0.1875 12.9375 C-3.67591542 14.25534582 -5.46688262 14.15210349 -9 13 C-10.9375 11.375 -10.9375 11.375 -12 9 C-12 5.4375 -12 5.4375 -11 2 C-7.39226569 -1.29849994 -4.57403022 -1.59096703 0 0 Z M-9 4 C-9.33333333 6.5 -9.33333333 6.5 -9 9 C-7.17296773 11.2491908 -7.17296773 11.2491908 -4.5 11.25 C-1.82703227 11.2491908 -1.82703227 11.2491908 0 9 C0.33333333 6.5 0.33333333 6.5 0 4 C-1.82703227 1.7508092 -1.82703227 1.7508092 -4.5 1.75 C-7.17296773 1.7508092 -7.17296773 1.7508092 -9 4 Z " fill="#979595" transform="translate(50,366)"/>
<path d="M0 0 C2.3920839 2.3920839 2.34576948 3.15138886 2.4375 6.4375 C2.33539604 10.66460396 2.33539604 10.66460396 -0.125 13.125 C-3.6171802 14.18783745 -5.53193245 14.13089159 -9 13 C-10.9375 11.375 -10.9375 11.375 -12 9 C-12 5.4375 -12 5.4375 -11 2 C-7.33796364 -1.34814753 -4.66231462 -1.34689089 0 0 Z M-9 4 C-9.33333333 6.5 -9.33333333 6.5 -9 9 C-7.17296773 11.2491908 -7.17296773 11.2491908 -4.5 11.25 C-1.82703227 11.2491908 -1.82703227 11.2491908 0 9 C0.33333333 6.5 0.33333333 6.5 0 4 C-1.82703227 1.7508092 -1.82703227 1.7508092 -4.5 1.75 C-7.17296773 1.7508092 -7.17296773 1.7508092 -9 4 Z " fill="#969494" transform="translate(208,366)"/>
<path d="M0 0 C1.875 1.1875 1.875 1.1875 3 3 C2.875 5.5625 2.875 5.5625 2 8 C-1 10 -1 10 -4.1875 9.625 C-5.5796875 9.315625 -5.5796875 9.315625 -7 9 C-8.33157895 3.55263158 -8.33157895 3.55263158 -6.875 1.125 C-4.36737712 -0.37957373 -2.87879197 -0.4318188 0 0 Z " fill="#BDA069" transform="translate(276,32)"/>
<path d="M0 0 C4.0084034 2.0042017 5.41409657 3.49055963 8 7 C8.33 4.69 8.66 2.38 9 0 C9.66 0 10.32 0 11 0 C11 4.29 11 8.58 11 13 C6.9915966 10.9957983 5.58590343 9.50944037 3 6 C2.67 8.31 2.34 10.62 2 13 C1.34 13 0.68 13 0 13 C0 8.71 0 4.42 0 0 Z " fill="#828081" transform="translate(470,366)"/>
<path d="M0 0 C4.0084034 2.0042017 5.41409657 3.49055963 8 7 C8.33 4.69 8.66 2.38 9 0 C9.66 0 10.32 0 11 0 C11 4.29 11 8.58 11 13 C6.9915966 10.9957983 5.58590343 9.50944037 3 6 C2.67 8.31 2.34 10.62 2 13 C1.34 13 0.68 13 0 13 C0 8.71 0 4.42 0 0 Z " fill="#838081" transform="translate(110,366)"/>
<path d="M0 0 C2.8202877 0.49769783 5.4072977 1.13848122 8.125 2.0625 C10.97136615 3.1550103 10.97136615 3.1550103 14 3 C14.66 3.33 15.32 3.66 16 4 C16 4.66 16 5.32 16 6 C17.98 6 19.96 6 22 6 C20.68 4.68 19.36 3.36 18 2 C22.71346154 3.48846154 22.71346154 3.48846154 24.1640625 6.078125 C24.43992188 6.71234375 24.71578125 7.3465625 25 8 C15.85495156 8.40411834 7.82365744 7.42614476 -1 5 C2.01031744 4.06576355 2.86650268 3.95550089 6 5 C6 4.34 6 3.68 6 3 C4.02 2.34 2.04 1.68 0 1 C0 0.67 0 0.34 0 0 Z " fill="#F4DDB6" transform="translate(200,126)"/>
<path d="M0 0 C2.31 0 4.62 0 7 0 C8.0625 1.8125 8.0625 1.8125 9 4 C8 7 8 7 6 8 C6.99 9.65 7.98 11.3 9 13 C6.13275314 12.42655063 5.1385485 12.1385485 3 10 C2.67 10.99 2.34 11.98 2 13 C1.34 13 0.68 13 0 13 C0 8.71 0 4.42 0 0 Z M2 2 C2 2.99 2 3.98 2 5 C3.32 5 4.64 5 6 5 C6 4.01 6 3.02 6 2 C4.68 2 3.36 2 2 2 Z " fill="#5B5858" transform="translate(263,366)"/>
<path d="M0 0 C-0.99 1.485 -0.99 1.485 -2 3 C-2.66 3 -3.32 3 -4 3 C-4 2.34 -4 1.68 -4 1 C-5.32 1 -6.64 1 -8 1 C-8.33 1.99 -8.66 2.98 -9 4 C-11.0625 5.6875 -11.0625 5.6875 -13 7 C-13.66 6.67 -14.32 6.34 -15 6 C-17.62113708 6 -19.50935112 6.31292445 -22 7 C-22 5.68 -22 4.36 -22 3 C-18.60529272 1.03289578 -15.42363712 0.40617773 -11.5625 -0.1875 C-10.45003906 -0.36667969 -9.33757812 -0.54585937 -8.19140625 -0.73046875 C-5.16534289 -0.98603591 -2.91752657 -0.76891822 0 0 Z " fill="#EED3A3" transform="translate(226,138)"/>
<path d="M0 0 C0.66 0 1.32 0 2 0 C2.84069415 1.60032137 3.67231505 3.20541171 4.5 4.8125 C4.9640625 5.70582031 5.428125 6.59914063 5.90625 7.51953125 C7 10 7 10 7 13 C6.01 12.67 5.02 12.34 4 12 C3.67 11.34 3.34 10.68 3 10 C1.68 10 0.36 10 -1 10 C-1.99 11.485 -1.99 11.485 -3 13 C-3.99 12.67 -4.98 12.34 -6 12 C-4.02 8.04 -2.04 4.08 0 0 Z M0 5 C0 5.66 0 6.32 0 7 C0.66 6.67 1.32 6.34 2 6 C1.34 5.67 0.68 5.34 0 5 Z " fill="#817F80" transform="translate(442,366)"/>
<path d="M0 0 C1.32 0 2.64 0 4 0 C4 3.96 4 7.92 4 12 C3.01 12 2.02 12 1 12 C1 11.34 1 10.68 1 10 C-0.32 9.34 -1.64 8.68 -3 8 C-2.25 2.25 -2.25 2.25 0 0 Z " fill="#BA9F6A" transform="translate(286,24)"/>
<path d="M0 0 C0.66 0 1.32 0 2 0 C2.33 3.3 2.66 6.6 3 10 C3.99 10.33 4.98 10.66 6 11 C6.33 7.37 6.66 3.74 7 0 C7.66 0 8.32 0 9 0 C9.08114106 1.77007714 9.13925505 3.54122098 9.1875 5.3125 C9.22230469 6.29863281 9.25710937 7.28476562 9.29296875 8.30078125 C9 11 9 11 7.65234375 12.87109375 C6 14 6 14 3.375 13.75 C1 13 1 13 0 12 C-0.07244053 9.98035801 -0.08377188 7.95832876 -0.0625 5.9375 C-0.05347656 4.83277344 -0.04445312 3.72804688 -0.03515625 2.58984375 C-0.02355469 1.73519531 -0.01195312 0.88054687 0 0 Z " fill="#838182" transform="translate(232,366)"/>
<path d="M0 0 C2.64 0 5.28 0 8 0 C8 0.66 8 1.32 8 2 C6.02 2 4.04 2 2 2 C2 2.99 2 3.98 2 5 C3.98 5 5.96 5 8 5 C8 5.66 8 6.32 8 7 C6.02 7 4.04 7 2 7 C2 8.32 2 9.64 2 11 C3.98 11 5.96 11 8 11 C8 11.66 8 12.32 8 13 C5.36 13 2.72 13 0 13 C0 8.71 0 4.42 0 0 Z " fill="#777575" transform="translate(374,366)"/>
<path d="M0 0 C2.64 0 5.28 0 8 0 C8 0.66 8 1.32 8 2 C6.02 2 4.04 2 2 2 C2 2.99 2 3.98 2 5 C3.98 5 5.96 5 8 5 C8 5.66 8 6.32 8 7 C6.02 7 4.04 7 2 7 C2 8.32 2 9.64 2 11 C3.98 11 5.96 11 8 11 C8 11.66 8 12.32 8 13 C5.36 13 2.72 13 0 13 C0 8.71 0 4.42 0 0 Z " fill="#777475" transform="translate(317,366)"/>
<path d="M0 0 C1.95873047 -0.01836914 1.95873047 -0.01836914 3.95703125 -0.03710938 C5.83068359 -0.04000977 5.83068359 -0.04000977 7.7421875 -0.04296875 C8.89315918 -0.04707764 10.04413086 -0.05118652 11.22998047 -0.05541992 C14.125 0.1875 14.125 0.1875 17.125 2.1875 C12.88961684 2.37970663 8.65394629 2.55843557 4.41748047 2.72460938 C2.97591858 2.78306424 1.53450193 2.84522144 0.09326172 2.91113281 C-1.97661905 3.00515355 -4.04665438 3.08591315 -6.1171875 3.1640625 C-7.3635498 3.21643066 -8.60991211 3.26879883 -9.89404297 3.32275391 C-12.875 3.1875 -12.875 3.1875 -14.875 1.1875 C-12.12606228 -1.56143772 -3.70749478 0.00181918 0 0 Z " fill="#EFDCBA" transform="translate(323.875,61.8125)"/>
<path d="M0 0 C1.9375 1 1.9375 1 3.1875 3.5625 C3.435 4.366875 3.6825 5.17125 3.9375 6 C2.75 7.5625 2.75 7.5625 0.9375 9 C-1.75 8.6875 -1.75 8.6875 -4.0625 8 C-4.75 5.6875 -4.75 5.6875 -5.0625 3 C-3.55817864 0.62475574 -2.83422296 0 0 0 Z " fill="#BFA26C" transform="translate(278.0625,17)"/>
<path d="M0 0 C6.32249485 1.87966063 14.26557671 4.26557671 19 9 C11.91923749 9.40850553 5.80074041 7.90420731 -1 6 C-1 5.67 -1 5.34 -1 5 C1.64 5 4.28 5 7 5 C3.535 3.02 3.535 3.02 0 1 C0 0.67 0 0.34 0 0 Z " fill="#F9E7C9" transform="translate(171,122)"/>
<path d="M0 0 C0.99 0 1.98 0 3 0 C3.33 0.66 3.66 1.32 4 2 C4.66 2 5.32 2 6 2 C6.33 1.34 6.66 0.68 7 0 C7.99 0 8.98 0 10 0 C9.566875 0.99 9.566875 0.99 9.125 2 C7.76562701 5.62499465 6.89375361 9.23346693 6 13 C5.34 13 4.68 13 4 13 C3.896875 11.9275 3.79375 10.855 3.6875 9.75 C3.01397764 6.07624166 2.34125011 4.74842404 0 2 C0 1.34 0 0.68 0 0 Z " fill="#7C7A7B" transform="translate(166,366)"/>
<path d="M0 0 C3 1 3 1 5 4 C5.66 3.34 6.32 2.68 7 2 C7 2.99 7 3.98 7 5 C7.66 5.33 8.32 5.66 9 6 C8.34 6 7.68 6 7 6 C6.855625 6.78375 6.71125 7.5675 6.5625 8.375 C6 11 6 11 5 13 C4.34 13 3.68 13 3 13 C2.49487756 11.39743892 1.99608373 9.79288208 1.5 8.1875 C1.2215625 7.29417969 0.943125 6.40085937 0.65625 5.48046875 C0 3 0 3 0 0 Z " fill="#918F8F" transform="translate(73,366)"/>
<path d="M0 0 C2.80362763 -0.22732116 4.46186517 -0.34081872 6.875 1.1875 C8 3 8 3 7.875 5.5625 C7 8 7 8 4 10 C1.8125 9.625 1.8125 9.625 0 9 C0.99 9 1.98 9 3 9 C3 6.36 3 3.72 3 1 C2.01 0.67 1.02 0.34 0 0 Z " fill="#E8CD9D" transform="translate(271,32)"/>
<path d="M0 0 C1.98 0.99 1.98 0.99 4 2 C4.9375 4.8125 4.9375 4.8125 5 8 C3.5625 10.875 3.5625 10.875 2 13 C1.34 12.67 0.68 12.34 0 12 C0 8.04 0 4.08 0 0 Z " fill="#F0D29D" transform="translate(293,24)"/>
<path d="M0 0 C2.31 0 4.62 0 7 0 C5.375 5.75 5.375 5.75 2 8 C-0.6875 8.125 -0.6875 8.125 -3 8 C-3 7.34 -3 6.68 -3 6 C-1.35 6 0.3 6 2 6 C2.33 5.01 2.66 4.02 3 3 C2.01 2.67 1.02 2.34 0 2 C0 1.34 0 0.68 0 0 Z " fill="#929090" transform="translate(410,372)"/>
<path d="M0 0 C2.64 0 5.28 0 8 0 C8 0.66 8 1.32 8 2 C7.01 2 6.02 2 5 2 C5 5.63 5 9.26 5 13 C4.34 13 3.68 13 3 13 C3 9.37 3 5.74 3 2 C2.01 2 1.02 2 0 2 C0 1.34 0 0.68 0 0 Z " fill="#787576" transform="translate(501,366)"/>
<path d="M0 0 C0.66 0.33 1.32 0.66 2 1 C-2.62 5.62 -7.24 10.24 -12 15 C-12.66 14.67 -13.32 14.34 -14 14 C-12.60919892 12.41224451 -11.21211596 10.82999061 -9.8125 9.25 C-8.64654297 7.92742187 -8.64654297 7.92742187 -7.45703125 6.578125 C-5.11544754 4.12113732 -2.69841735 2.05137234 0 0 Z " fill="#CCB891" transform="translate(182,152)"/>
<path d="M0 0 C0.66 0 1.32 0 2 0 C2 3.63 2 7.26 2 11 C3.65 11 5.3 11 7 11 C7 11.66 7 12.32 7 13 C4.69 13 2.38 13 0 13 C0 8.71 0 4.42 0 0 Z " fill="#787676" transform="translate(346,366)"/>
<path d="M0 0 C0.309375 0.639375 0.61875 1.27875 0.9375 1.9375 C1.8345163 3.93610821 1.8345163 3.93610821 3 5 C4.34747084 5.23075082 5.70377565 5.41153063 7.0625 5.5625 C8.361875 5.706875 9.66125 5.85125 11 6 C10.67 6.66 10.34 7.32 10 8 C3.85863268 9.50637312 3.85863268 9.50637312 0.5625 7.5625 C0.046875 7.046875 -0.46875 6.53125 -1 6 C-0.67 4.02 -0.34 2.04 0 0 Z " fill="#A19FA0" transform="translate(40,371)"/>
<path d="M0 0 C5.5952381 0.5952381 5.5952381 0.5952381 8 3 C8.1953125 5.1640625 8.1953125 5.1640625 8.125 7.625 C8.10695312 8.44226563 8.08890625 9.25953125 8.0703125 10.1015625 C8.03550781 11.04128906 8.03550781 11.04128906 8 12 C7.34 12 6.68 12 6 12 C5.87625 10.88625 5.7525 9.7725 5.625 8.625 C5.3534187 4.96896323 5.3534187 4.96896323 3 3 C1.68252676 2.30251417 0.35085807 1.63040043 -1 1 C-0.67 0.67 -0.34 0.34 0 0 Z " fill="#868484" transform="translate(202,365)"/>
<path d="M0 0 C1.98 0 3.96 0 6 0 C6.33 1.32 6.66 2.64 7 4 C6.21625 3.938125 5.4325 3.87625 4.625 3.8125 C3.325625 3.9053125 3.325625 3.9053125 2 4 C1.01 5.485 1.01 5.485 0 7 C-0.99 6.67 -1.98 6.34 -3 6 C-2.01 4.02 -1.02 2.04 0 0 Z " fill="#918F8F" transform="translate(439,372)"/>
<path d="M0 0 C1.875 0.1875 1.875 0.1875 4 1 C5.25 3.5625 5.25 3.5625 6 6 C5.01 6.99 4.02 7.98 3 9 C2.01 8.67 1.02 8.34 0 8 C0.66 8 1.32 8 2 8 C2 5.69 2 3.38 2 1 C1.34 0.67 0.68 0.34 0 0 Z " fill="#EAD1A3" transform="translate(276,17)"/>
<path d="M0 0 C-0.99 1.485 -0.99 1.485 -2 3 C-2.66 3 -3.32 3 -4 3 C-4 2.34 -4 1.68 -4 1 C-8.62 1.33 -13.24 1.66 -18 2 C-12.87007097 -1.41995269 -5.90816419 -1.77244926 0 0 Z " fill="#F9E5C2" transform="translate(226,138)"/>
<path d="M0 0 C0.66 0 1.32 0 2 0 C2 3.63 2 7.26 2 11 C1.34 11 0.68 11 0 11 C0 10.34 0 9.68 0 9 C-0.99 8.67 -1.98 8.34 -3 8 C-2.34 7.67 -1.68 7.34 -1 7 C-0.59270772 4.67843403 -0.25561323 2.3431213 0 0 Z " fill="#B08D4C" transform="translate(287,25)"/>
<path d="M0 0 C2.3125 0.1875 2.3125 0.1875 5 1 C6.8125 3.5625 6.8125 3.5625 8 6 C5.13275314 5.42655063 4.1385485 5.1385485 2 3 C1.34 3.99 0.68 4.98 0 6 C0 4.02 0 2.04 0 0 Z " fill="#A1A0A0" transform="translate(264,373)"/>
<path d="M0 0 C0.66 0 1.32 0 2 0 C1.34 3.3 0.68 6.6 0 10 C-0.99 9.67 -1.98 9.34 -3 9 C-2.01 6.03 -1.02 3.06 0 0 Z " fill="#9B9999" transform="translate(87,366)"/>
<path d="M0 0 C0.66 0.66 1.32 1.32 2 2 C0.35 5.3 -1.3 8.6 -3 12 C-4.08739959 7.65040163 -3.87042689 6.83929731 -2 3 C-1.34 2.01 -0.68 1.02 0 0 Z " fill="#FDF1DC" transform="translate(348,137)"/>
<path d="M0 0 C-1.44077046 3.36179774 -3.24750021 5.59156268 -6 8 C-6.66 8 -7.32 8 -8 8 C-6.48291727 4.46014029 -4.24676932 0 0 0 Z " fill="#7B797A" transform="translate(143,247)"/>
<path d="M0 0 C3.125 0.375 3.125 0.375 6 1 C5.38125 1.20625 4.7625 1.4125 4.125 1.625 C1.15346355 3.54775888 0.86975341 5.66594527 0 9 C-0.33 9 -0.66 9 -1 9 C-1.625 5.625 -1.625 5.625 -2 2 C-1.34 1.34 -0.68 0.68 0 0 Z " fill="#ACABAB" transform="translate(199,366)"/>
<path d="M0 0 C0.66 0.33 1.32 0.66 2 1 C0.88121617 2.17262904 -0.24523051 3.33795138 -1.375 4.5 C-2.00148437 5.1496875 -2.62796875 5.799375 -3.2734375 6.46875 C-5 8 -5 8 -7 8 C-5.50902342 4.2047869 -3.24299151 2.38957269 0 0 Z " fill="#888687" transform="translate(228,246)"/>
<path d="M0 0 C0.391875 0.474375 0.78375 0.94875 1.1875 1.4375 C3.40808374 3.35179633 5.13375709 3.61266988 8 4 C8 4.33 8 4.66 8 5 C5.69 5.33 3.38 5.66 1 6 C-0.0625 4.125 -0.0625 4.125 -1 2 C-0.67 1.34 -0.34 0.68 0 0 Z " fill="#A7A5A6" transform="translate(404,373)"/>
<path d="M0 0 C-1.07401108 2.91517292 -1.77810176 4.77810176 -4 7 C-4 6.34 -4 5.68 -4 5 C-4.66 5 -5.32 5 -6 5 C-6 3 -6 3 -4.6875 1.375 C-3 0 -3 0 0 0 Z " fill="#A19FA0" transform="translate(176,366)"/>
<path d="M0 0 C1 3 1 3 0 6 C-0.66 5.67 -1.32 5.34 -2 5 C-2 3.68 -2 2.36 -2 1 C-3.32 0.67 -4.64 0.34 -6 0 C-3 -1 -3 -1 0 0 Z " fill="#8D8C8C" transform="translate(271,367)"/>
<path d="M0 0 C0.99 0 1.98 0 3 0 C2.34 2.31 1.68 4.62 1 7 C0.34 7 -0.32 7 -1 7 C-0.67 4.69 -0.34 2.38 0 0 Z " fill="#888687" transform="translate(39,368)"/>
</svg>
